<?xml version="1.0" encoding="UTF-8" standalone="no"?>
<!DOCTYPE svg PUBLIC "-//W3C//DTD SVG 1.1//EN"
 "http://www.w3.org/Graphics/SVG/1.1/DTD/svg11.dtd">
<!-- Generated by graphviz version 2.43.0 (0)
 -->
<!-- Title: DUMP Pages: 1 -->
<svg width="1307pt" height="581pt"
 viewBox="0.00 0.00 1307.00 581.00" xmlns="http://www.w3.org/2000/svg" xmlns:xlink="http://www.w3.org/1999/xlink">
<g id="graph0" class="graph" transform="scale(1 1) rotate(0) translate(4 577)">
<title>DUMP</title>
<polygon fill="white" stroke="transparent" points="-4,4 -4,-577 1303,-577 1303,4 -4,4"/>
<!-- node0 -->
<g id="node1" class="node">
<title>node0</title>
<polygon fill="#0bdfee" stroke="transparent" points="327,-410 327,-569 732,-569 732,-410 327,-410"/>
<polygon fill="#777777" stroke="transparent" points="330.5,-529.5 330.5,-565.5 729.5,-565.5 729.5,-529.5 330.5,-529.5"/>
<polygon fill="none" stroke="#383838" stroke-width="2" points="331.5,-530.5 331.5,-564.5 728.5,-564.5 728.5,-530.5 331.5,-530.5"/>
<text text-anchor="start" x="496" y="-541.3" font-family="Arial" font-size="24.00">node0</text>
<polygon fill="#db9721" stroke="transparent" stroke-width="2" points="330.5,-490.5 330.5,-526.5 729.5,-526.5 729.5,-490.5 330.5,-490.5"/>
<polygon fill="none" stroke="#000000" stroke-width="2" points="331.5,-491.5 331.5,-525.5 728.5,-525.5 728.5,-491.5 331.5,-491.5"/>
<text text-anchor="start" x="436" y="-502.3" font-family="Arial" font-size="24.00">0x504000000010</text>
<polygon fill="#540e96" stroke="transparent" stroke-width="2" points="330.5,-451.5 330.5,-487.5 729.5,-487.5 729.5,-451.5 330.5,-451.5"/>
<polygon fill="none" stroke="#000000" stroke-width="2" points="331.5,-452.5 331.5,-486.5 728.5,-486.5 728.5,-452.5 331.5,-452.5"/>
<text text-anchor="start" x="516" y="-463.3" font-family="Arial" font-size="24.00">10</text>
<polygon fill="#db9721" stroke="transparent" stroke-width="2" points="330.5,-412.5 330.5,-448.5 528.5,-448.5 528.5,-412.5 330.5,-412.5"/>
<polygon fill="none" stroke="#000000" stroke-width="2" points="331.5,-413.5 331.5,-447.5 527.5,-447.5 527.5,-413.5 331.5,-413.5"/>
<text text-anchor="start" x="335.5" y="-424.3" font-family="Arial" font-size="24.00">0x504000000050</text>
<polygon fill="#db9721" stroke="transparent" stroke-width="2" points="531.5,-412.5 531.5,-448.5 729.5,-448.5 729.5,-412.5 531.5,-412.5"/>
<polygon fill="none" stroke="#000000" stroke-width="2" points="532.5,-413.5 532.5,-447.5 728.5,-447.5 728.5,-413.5 532.5,-413.5"/>
<text text-anchor="start" x="536.5" y="-424.3" font-family="Arial" font-size="24.00">0x504000000090</text>
</g>
<!-- node1 -->
<g id="node2" class="node">
<title>node1</title>
<polygon fill="#0bdfee" stroke="transparent" points="108,-207 108,-366 513,-366 513,-207 108,-207"/>
<polygon fill="#777777" stroke="transparent" points="111.5,-326.5 111.5,-362.5 510.5,-362.5 510.5,-326.5 111.5,-326.5"/>
<polygon fill="none" stroke="#383838" stroke-width="2" points="112.5,-327.5 112.5,-361.5 509.5,-361.5 509.5,-327.5 112.5,-327.5"/>
<text text-anchor="start" x="277" y="-338.3" font-family="Arial" font-size="24.00">node1</text>
<polygon fill="#db9721" stroke="transparent" stroke-width="2" points="111.5,-287.5 111.5,-323.5 510.5,-323.5 510.5,-287.5 111.5,-287.5"/>
<polygon fill="none" stroke="#000000" stroke-width="2" points="112.5,-288.5 112.5,-322.5 509.5,-322.5 509.5,-288.5 112.5,-288.5"/>
<text text-anchor="start" x="217" y="-299.3" font-family="Arial" font-size="24.00">0x504000000050</text>
<polygon fill="#540e96" stroke="transparent" stroke-width="2" points="111.5,-248.5 111.5,-284.5 510.5,-284.5 510.5,-248.5 111.5,-248.5"/>
<polygon fill="none" stroke="#000000" stroke-width="2" points="112.5,-249.5 112.5,-283.5 509.5,-283.5 509.5,-249.5 112.5,-249.5"/>
<text text-anchor="start" x="304" y="-260.3" font-family="Arial" font-size="24.00">7</text>
<polygon fill="#db9721" stroke="transparent" stroke-width="2" points="111.5,-209.5 111.5,-245.5 309.5,-245.5 309.5,-209.5 111.5,-209.5"/>
<polygon fill="none" stroke="#000000" stroke-width="2" points="112.5,-210.5 112.5,-244.5 308.5,-244.5 308.5,-210.5 112.5,-210.5"/>
<text text-anchor="start" x="116.5" y="-221.3" font-family="Arial" font-size="24.00">0x504000000110</text>
<polygon fill="#db9721" stroke="transparent" stroke-width="2" points="312.5,-209.5 312.5,-245.5 510.5,-245.5 510.5,-209.5 312.5,-209.5"/>
<polygon fill="none" stroke="#000000" stroke-width="2" points="313.5,-210.5 313.5,-244.5 509.5,-244.5 509.5,-210.5 313.5,-210.5"/>
<text text-anchor="start" x="317.5" y="-221.3" font-family="Arial" font-size="24.00">0x000000000000</text>
</g>
<!-- node0&#45;&gt;node1 -->
<g id="edge1" class="edge">
<title>node0:l&#45;&gt;node1:n</title>
<path fill="none" stroke="#4d00a6" stroke-width="2" d="M329.5,-430.5C329.5,-430.5 318.92,-396.82 313.55,-379.72"/>
<polygon fill="#4d00a6" stroke="#4d00a6" stroke-width="2" points="316.84,-378.49 310.5,-370 310.16,-380.59 316.84,-378.49"/>
</g>
<!-- node3 -->
<g id="node4" class="node">
<title>node3</title>
<polygon fill="#0bdfee" stroke="transparent" points="547,-207 547,-366 952,-366 952,-207 547,-207"/>
<polygon fill="#777777" stroke="transparent" points="550.5,-326.5 550.5,-362.5 949.5,-362.5 949.5,-326.5 550.5,-326.5"/>
<polygon fill="none" stroke="#383838" stroke-width="2" points="551.5,-327.5 551.5,-361.5 948.5,-361.5 948.5,-327.5 551.5,-327.5"/>
<text text-anchor="start" x="716" y="-338.3" font-family="Arial" font-size="24.00">node3</text>
<polygon fill="#db9721" stroke="transparent" stroke-width="2" points="550.5,-287.5 550.5,-323.5 949.5,-323.5 949.5,-287.5 550.5,-287.5"/>
<polygon fill="none" stroke="#000000" stroke-width="2" points="551.5,-288.5 551.5,-322.5 948.5,-322.5 948.5,-288.5 551.5,-288.5"/>
<text text-anchor="start" x="656" y="-299.3" font-family="Arial" font-size="24.00">0x504000000090</text>
<polygon fill="#540e96" stroke="transparent" stroke-width="2" points="550.5,-248.5 550.5,-284.5 949.5,-284.5 949.5,-248.5 550.5,-248.5"/>
<polygon fill="none" stroke="#000000" stroke-width="2" points="551.5,-249.5 551.5,-283.5 948.5,-283.5 948.5,-249.5 551.5,-249.5"/>
<text text-anchor="start" x="736" y="-260.3" font-family="Arial" font-size="24.00">20</text>
<polygon fill="#db9721" stroke="transparent" stroke-width="2" points="550.5,-209.5 550.5,-245.5 748.5,-245.5 748.5,-209.5 550.5,-209.5"/>
<polygon fill="none" stroke="#000000" stroke-width="2" points="551.5,-210.5 551.5,-244.5 747.5,-244.5 747.5,-210.5 551.5,-210.5"/>
<text text-anchor="start" x="555.5" y="-221.3" font-family="Arial" font-size="24.00">0x504000000190</text>
<polygon fill="#db9721" stroke="transparent" stroke-width="2" points="751.5,-209.5 751.5,-245.5 949.5,-245.5 949.5,-209.5 751.5,-209.5"/>
<polygon fill="none" stroke="#000000" stroke-width="2" points="752.5,-210.5 752.5,-244.5 948.5,-244.5 948.5,-210.5 752.5,-210.5"/>
<text text-anchor="start" x="756.5" y="-221.3" font-family="Arial" font-size="24.00">0x504000000150</text>
</g>
<!-- node0&#45;&gt;node3 -->
<g id="edge3" class="edge">
<title>node0:r&#45;&gt;node3:n</title>
<path fill="none" stroke="#4d00a6" stroke-width="2" d="M730.5,-430.5C730.5,-430.5 741.08,-396.82 746.45,-379.72"/>
<polygon fill="#4d00a6" stroke="#4d00a6" stroke-width="2" points="749.84,-380.59 749.5,-370 743.16,-378.49 749.84,-380.59"/>
</g>
<!-- node2 -->
<g id="node3" class="node">
<title>node2</title>
<polygon fill="#0bdfee" stroke="transparent" points="8,-4 8,-163 413,-163 413,-4 8,-4"/>
<polygon fill="#777777" stroke="transparent" points="11.5,-123.5 11.5,-159.5 410.5,-159.5 410.5,-123.5 11.5,-123.5"/>
<polygon fill="none" stroke="#383838" stroke-width="2" points="12.5,-124.5 12.5,-158.5 409.5,-158.5 409.5,-124.5 12.5,-124.5"/>
<text text-anchor="start" x="177" y="-135.3" font-family="Arial" font-size="24.00">node2</text>
<polygon fill="#db9721" stroke="transparent" stroke-width="2" points="11.5,-84.5 11.5,-120.5 410.5,-120.5 410.5,-84.5 11.5,-84.5"/>
<polygon fill="none" stroke="#000000" stroke-width="2" points="12.5,-85.5 12.5,-119.5 409.5,-119.5 409.5,-85.5 12.5,-85.5"/>
<text text-anchor="start" x="117" y="-96.3" font-family="Arial" font-size="24.00">0x504000000110</text>
<polygon fill="#540e96" stroke="transparent" stroke-width="2" points="11.5,-45.5 11.5,-81.5 410.5,-81.5 410.5,-45.5 11.5,-45.5"/>
<polygon fill="none" stroke="#000000" stroke-width="2" points="12.5,-46.5 12.5,-80.5 409.5,-80.5 409.5,-46.5 12.5,-46.5"/>
<text text-anchor="start" x="204" y="-57.3" font-family="Arial" font-size="24.00">3</text>
<polygon fill="#db9721" stroke="transparent" stroke-width="2" points="11.5,-6.5 11.5,-42.5 209.5,-42.5 209.5,-6.5 11.5,-6.5"/>
<polygon fill="none" stroke="#000000" stroke-width="2" points="12.5,-7.5 12.5,-41.5 208.5,-41.5 208.5,-7.5 12.5,-7.5"/>
<text text-anchor="start" x="16.5" y="-18.3" font-family="Arial" font-size="24.00">0x000000000000</text>
<polygon fill="#db9721" stroke="transparent" stroke-width="2" points="212.5,-6.5 212.5,-42.5 410.5,-42.5 410.5,-6.5 212.5,-6.5"/>
<polygon fill="none" stroke="#000000" stroke-width="2" points="213.5,-7.5 213.5,-41.5 409.5,-41.5 409.5,-7.5 213.5,-7.5"/>
<text text-anchor="start" x="217.5" y="-18.3" font-family="Arial" font-size="24.00">0x000000000000</text>
</g>
<!-- node1&#45;&gt;node2 -->
<g id="edge2" class="edge">
<title>node1:l&#45;&gt;node2:n</title>
<path fill="none" stroke="#4d00a6" stroke-width="2" d="M210.5,-208.5C210.5,-208.5 210.5,-189.33 210.5,-177.05"/>
<polygon fill="#4d00a6" stroke="#4d00a6" stroke-width="2" points="214,-177 210.5,-167 207,-177 214,-177"/>
</g>
<!-- node4 -->
<g id="node5" class="node">
<title>node4</title>
<polygon fill="#0bdfee" stroke="transparent" points="447,-4 447,-163 852,-163 852,-4 447,-4"/>
<polygon fill="#777777" stroke="transparent" points="450.5,-123.5 450.5,-159.5 849.5,-159.5 849.5,-123.5 450.5,-123.5"/>
<polygon fill="none" stroke="#383838" stroke-width="2" points="451.5,-124.5 451.5,-158.5 848.5,-158.5 848.5,-124.5 451.5,-124.5"/>
<text text-anchor="start" x="616" y="-135.3" font-family="Arial" font-size="24.00">node4</text>
<polygon fill="#db9721" stroke="transparent" stroke-width="2" points="450.5,-84.5 450.5,-120.5 849.5,-120.5 849.5,-84.5 450.5,-84.5"/>
<polygon fill="none" stroke="#000000" stroke-width="2" points="451.5,-85.5 451.5,-119.5 848.5,-119.5 848.5,-85.5 451.5,-85.5"/>
<text text-anchor="start" x="556" y="-96.3" font-family="Arial" font-size="24.00">0x504000000190</text>
<polygon fill="#540e96" stroke="transparent" stroke-width="2" points="450.5,-45.5 450.5,-81.5 849.5,-81.5 849.5,-45.5 450.5,-45.5"/>
<polygon fill="none" stroke="#000000" stroke-width="2" points="451.5,-46.5 451.5,-80.5 848.5,-80.5 848.5,-46.5 451.5,-46.5"/>
<text text-anchor="start" x="636" y="-57.3" font-family="Arial" font-size="24.00">15</text>
<polygon fill="#db9721" stroke="transparent" stroke-width="2" points="450.5,-6.5 450.5,-42.5 648.5,-42.5 648.5,-6.5 450.5,-6.5"/>
<polygon fill="none" stroke="#000000" stroke-width="2" points="451.5,-7.5 451.5,-41.5 647.5,-41.5 647.5,-7.5 451.5,-7.5"/>
<text text-anchor="start" x="455.5" y="-18.3" font-family="Arial" font-size="24.00">0x000000000000</text>
<polygon fill="#db9721" stroke="transparent" stroke-width="2" points="651.5,-6.5 651.5,-42.5 849.5,-42.5 849.5,-6.5 651.5,-6.5"/>
<polygon fill="none" stroke="#000000" stroke-width="2" points="652.5,-7.5 652.5,-41.5 848.5,-41.5 848.5,-7.5 652.5,-7.5"/>
<text text-anchor="start" x="656.5" y="-18.3" font-family="Arial" font-size="24.00">0x000000000000</text>
</g>
<!-- node3&#45;&gt;node4 -->
<g id="edge4" class="edge">
<title>node3:l&#45;&gt;node4:n</title>
<path fill="none" stroke="#4d00a6" stroke-width="2" d="M649.5,-208.5C649.5,-208.5 649.5,-189.33 649.5,-177.05"/>
<polygon fill="#4d00a6" stroke="#4d00a6" stroke-width="2" points="653,-177 649.5,-167 646,-177 653,-177"/>
</g>
<!-- node5 -->
<g id="node6" class="node">
<title>node5</title>
<polygon fill="#0bdfee" stroke="transparent" points="886,-4 886,-163 1291,-163 1291,-4 886,-4"/>
<polygon fill="#777777" stroke="transparent" points="889.5,-123.5 889.5,-159.5 1288.5,-159.5 1288.5,-123.5 889.5,-123.5"/>
<polygon fill="none" stroke="#383838" stroke-width="2" points="890.5,-124.5 890.5,-158.5 1287.5,-158.5 1287.5,-124.5 890.5,-124.5"/>
<text text-anchor="start" x="1055" y="-135.3" font-family="Arial" font-size="24.00">node5</text>
<polygon fill="#db9721" stroke="transparent" stroke-width="2" points="889.5,-84.5 889.5,-120.5 1288.5,-120.5 1288.5,-84.5 889.5,-84.5"/>
<polygon fill="none" stroke="#000000" stroke-width="2" points="890.5,-85.5 890.5,-119.5 1287.5,-119.5 1287.5,-85.5 890.5,-85.5"/>
<text text-anchor="start" x="995" y="-96.3" font-family="Arial" font-size="24.00">0x504000000150</text>
<polygon fill="#540e96" stroke="transparent" stroke-width="2" points="889.5,-45.5 889.5,-81.5 1288.5,-81.5 1288.5,-45.5 889.5,-45.5"/>
<polygon fill="none" stroke="#000000" stroke-width="2" points="890.5,-46.5 890.5,-80.5 1287.5,-80.5 1287.5,-46.5 890.5,-46.5"/>
<text text-anchor="start" x="1075" y="-57.3" font-family="Arial" font-size="24.00">35</text>
<polygon fill="#db9721" stroke="transparent" stroke-width="2" points="889.5,-6.5 889.5,-42.5 1087.5,-42.5 1087.5,-6.5 889.5,-6.5"/>
<polygon fill="none" stroke="#000000" stroke-width="2" points="890.5,-7.5 890.5,-41.5 1086.5,-41.5 1086.5,-7.5 890.5,-7.5"/>
<text text-anchor="start" x="894.5" y="-18.3" font-family="Arial" font-size="24.00">0x000000000000</text>
<polygon fill="#db9721" stroke="transparent" stroke-width="2" points="1090.5,-6.5 1090.5,-42.5 1288.5,-42.5 1288.5,-6.5 1090.5,-6.5"/>
<polygon fill="none" stroke="#000000" stroke-width="2" points="1091.5,-7.5 1091.5,-41.5 1287.5,-41.5 1287.5,-7.5 1091.5,-7.5"/>
<text text-anchor="start" x="1095.5" y="-18.3" font-family="Arial" font-size="24.00">0x000000000000</text>
</g>
<!-- node3&#45;&gt;node5 -->
<g id="edge5" class="edge">
<title>node3:r&#45;&gt;node5:n</title>
<path fill="none" stroke="#4d00a6" stroke-width="2" d="M950.5,-227.5C950.5,-227.5 1047.84,-184.83 1079.01,-171.16"/>
<polygon fill="#4d00a6" stroke="#4d00a6" stroke-width="2" points="1080.75,-174.22 1088.5,-167 1077.94,-167.81 1080.75,-174.22"/>
</g>
</g>
</svg>
