<?xml version="1.0" encoding="UTF-8" standalone="no"?>
<!DOCTYPE svg PUBLIC "-//W3C//DTD SVG 1.1//EN"
 "http://www.w3.org/Graphics/SVG/1.1/DTD/svg11.dtd">
<!-- Generated by graphviz version 2.43.0 (0)
 -->
<!-- Title: DUMP Pages: 1 -->
<svg width="228pt" height="515pt"
 viewBox="0.00 0.00 228.00 515.00" xmlns="http://www.w3.org/2000/svg" xmlns:xlink="http://www.w3.org/1999/xlink">
<g id="graph0" class="graph" transform="scale(1 1) rotate(0) translate(4 511)">
<title>DUMP</title>
<polygon fill="white" stroke="transparent" points="-4,4 -4,-511 224,-511 224,4 -4,4"/>
<!-- node0 -->
<g id="node1" class="node">
<title>node0</title>
<path fill="#0e7696" stroke="black" d="M12,-0.5C12,-0.5 208,-0.5 208,-0.5 214,-0.5 220,-6.5 220,-12.5 220,-12.5 220,-74.5 220,-74.5 220,-80.5 214,-86.5 208,-86.5 208,-86.5 12,-86.5 12,-86.5 6,-86.5 0,-80.5 0,-74.5 0,-74.5 0,-12.5 0,-12.5 0,-6.5 6,-0.5 12,-0.5"/>
<text text-anchor="middle" x="110" y="-69.4" font-family="Arial" font-size="12.00">0x503000000040</text>
<polyline fill="none" stroke="black" points="0,-58.5 220,-58.5 "/>
<text text-anchor="middle" x="110" y="-40.9" font-family="Arial" font-size="12.00">10</text>
<polyline fill="none" stroke="black" points="0,-29.5 220,-29.5 "/>
<text text-anchor="middle" x="55" y="-11.9" font-family="Arial" font-size="12.00">0x503000000070</text>
<polyline fill="none" stroke="black" points="110,-0.5 110,-29.5 "/>
<text text-anchor="middle" x="165" y="-11.9" font-family="Arial" font-size="12.00">0x5030000000a0</text>
</g>
<!-- node1 -->
<g id="node2" class="node">
<title>node1</title>
<path fill="#0e7696" stroke="black" d="M48.5,-105.5C48.5,-105.5 171.5,-105.5 171.5,-105.5 177.5,-105.5 183.5,-111.5 183.5,-117.5 183.5,-117.5 183.5,-179.5 183.5,-179.5 183.5,-185.5 177.5,-191.5 171.5,-191.5 171.5,-191.5 48.5,-191.5 48.5,-191.5 42.5,-191.5 36.5,-185.5 36.5,-179.5 36.5,-179.5 36.5,-117.5 36.5,-117.5 36.5,-111.5 42.5,-105.5 48.5,-105.5"/>
<text text-anchor="middle" x="110" y="-174.4" font-family="Arial" font-size="12.00">0x503000000070</text>
<polyline fill="none" stroke="black" points="36.5,-163.5 183.5,-163.5 "/>
<text text-anchor="middle" x="110" y="-145.9" font-family="Arial" font-size="12.00">7</text>
<polyline fill="none" stroke="black" points="36.5,-134.5 183.5,-134.5 "/>
<text text-anchor="middle" x="91.5" y="-116.9" font-family="Arial" font-size="12.00">0x503000000100</text>
<polyline fill="none" stroke="black" points="146.5,-105.5 146.5,-134.5 "/>
<text text-anchor="middle" x="165" y="-116.9" font-family="Arial" font-size="12.00">(nil)</text>
</g>
<!-- node2 -->
<g id="node3" class="node">
<title>node2</title>
<path fill="#0e7696" stroke="black" d="M67,-210.5C67,-210.5 153,-210.5 153,-210.5 159,-210.5 165,-216.5 165,-222.5 165,-222.5 165,-284.5 165,-284.5 165,-290.5 159,-296.5 153,-296.5 153,-296.5 67,-296.5 67,-296.5 61,-296.5 55,-290.5 55,-284.5 55,-284.5 55,-222.5 55,-222.5 55,-216.5 61,-210.5 67,-210.5"/>
<text text-anchor="middle" x="110" y="-279.4" font-family="Arial" font-size="12.00">0x503000000100</text>
<polyline fill="none" stroke="black" points="55,-268.5 165,-268.5 "/>
<text text-anchor="middle" x="110" y="-250.9" font-family="Arial" font-size="12.00">3</text>
<polyline fill="none" stroke="black" points="55,-239.5 165,-239.5 "/>
<text text-anchor="middle" x="82.5" y="-221.9" font-family="Arial" font-size="12.00">(nil)</text>
<polyline fill="none" stroke="black" points="110,-210.5 110,-239.5 "/>
<text text-anchor="middle" x="137.5" y="-221.9" font-family="Arial" font-size="12.00">(nil)</text>
</g>
<!-- node3 -->
<g id="node4" class="node">
<title>node3</title>
<path fill="#0e7696" stroke="black" d="M48.5,-315.5C48.5,-315.5 171.5,-315.5 171.5,-315.5 177.5,-315.5 183.5,-321.5 183.5,-327.5 183.5,-327.5 183.5,-389.5 183.5,-389.5 183.5,-395.5 177.5,-401.5 171.5,-401.5 171.5,-401.5 48.5,-401.5 48.5,-401.5 42.5,-401.5 36.5,-395.5 36.5,-389.5 36.5,-389.5 36.5,-327.5 36.5,-327.5 36.5,-321.5 42.5,-315.5 48.5,-315.5"/>
<text text-anchor="middle" x="110" y="-384.4" font-family="Arial" font-size="12.00">0x5030000000a0</text>
<polyline fill="none" stroke="black" points="36.5,-373.5 183.5,-373.5 "/>
<text text-anchor="middle" x="110" y="-355.9" font-family="Arial" font-size="12.00">20</text>
<polyline fill="none" stroke="black" points="36.5,-344.5 183.5,-344.5 "/>
<text text-anchor="middle" x="55" y="-326.9" font-family="Arial" font-size="12.00">(nil)</text>
<polyline fill="none" stroke="black" points="73.5,-315.5 73.5,-344.5 "/>
<text text-anchor="middle" x="128.5" y="-326.9" font-family="Arial" font-size="12.00">0x503000000130</text>
</g>
<!-- node4 -->
<g id="node5" class="node">
<title>node4</title>
<path fill="#0e7696" stroke="black" d="M67,-420.5C67,-420.5 153,-420.5 153,-420.5 159,-420.5 165,-426.5 165,-432.5 165,-432.5 165,-494.5 165,-494.5 165,-500.5 159,-506.5 153,-506.5 153,-506.5 67,-506.5 67,-506.5 61,-506.5 55,-500.5 55,-494.5 55,-494.5 55,-432.5 55,-432.5 55,-426.5 61,-420.5 67,-420.5"/>
<text text-anchor="middle" x="110" y="-489.4" font-family="Arial" font-size="12.00">0x503000000130</text>
<polyline fill="none" stroke="black" points="55,-478.5 165,-478.5 "/>
<text text-anchor="middle" x="110" y="-460.9" font-family="Arial" font-size="12.00">35</text>
<polyline fill="none" stroke="black" points="55,-449.5 165,-449.5 "/>
<text text-anchor="middle" x="82.5" y="-431.9" font-family="Arial" font-size="12.00">(nil)</text>
<polyline fill="none" stroke="black" points="110,-420.5 110,-449.5 "/>
<text text-anchor="middle" x="137.5" y="-431.9" font-family="Arial" font-size="12.00">(nil)</text>
</g>
</g>
</svg>
