<?xml version="1.0" encoding="UTF-8" standalone="no"?>
<!DOCTYPE svg PUBLIC "-//W3C//DTD SVG 1.1//EN"
 "http://www.w3.org/Graphics/SVG/1.1/DTD/svg11.dtd">
<!-- Generated by graphviz version 2.43.0 (0)
 -->
<!-- Title: DUMP Pages: 1 -->
<svg width="1846pt" height="784pt"
 viewBox="0.00 0.00 1846.00 784.00" xmlns="http://www.w3.org/2000/svg" xmlns:xlink="http://www.w3.org/1999/xlink">
<g id="graph0" class="graph" transform="scale(1 1) rotate(0) translate(4 780)">
<title>DUMP</title>
<polygon fill="white" stroke="transparent" points="-4,4 -4,-780 1842,-780 1842,4 -4,4"/>
<!-- node0 -->
<g id="node1" class="node">
<title>node0</title>
<polygon fill="#0bdfee" stroke="transparent" points="765,-613 765,-772 1170,-772 1170,-613 765,-613"/>
<polygon fill="#ffffff" stroke="transparent" points="768.5,-732.5 768.5,-768.5 1167.5,-768.5 1167.5,-732.5 768.5,-732.5"/>
<polygon fill="none" stroke="#383838" stroke-width="2" points="769.5,-733.5 769.5,-767.5 1166.5,-767.5 1166.5,-733.5 769.5,-733.5"/>
<text text-anchor="start" x="934" y="-744.3" font-family="Arial" font-size="24.00">node0</text>
<polygon fill="#00ffaa" stroke="transparent" stroke-width="2" points="768.5,-693.5 768.5,-729.5 1167.5,-729.5 1167.5,-693.5 768.5,-693.5"/>
<polygon fill="none" stroke="#000000" stroke-width="2" points="769.5,-694.5 769.5,-728.5 1166.5,-728.5 1166.5,-694.5 769.5,-694.5"/>
<text text-anchor="start" x="874" y="-705.3" font-family="Arial" font-size="24.00">0x5030000000a0</text>
<polygon fill="#c5a1e6" stroke="transparent" stroke-width="2" points="768.5,-654.5 768.5,-690.5 1167.5,-690.5 1167.5,-654.5 768.5,-654.5"/>
<polygon fill="none" stroke="#000000" stroke-width="2" points="769.5,-655.5 769.5,-689.5 1166.5,-689.5 1166.5,-655.5 769.5,-655.5"/>
<text text-anchor="start" x="954" y="-666.3" font-family="Arial" font-size="24.00">10</text>
<polygon fill="#eeff00" stroke="transparent" stroke-width="2" points="768.5,-615.5 768.5,-651.5 966.5,-651.5 966.5,-615.5 768.5,-615.5"/>
<polygon fill="none" stroke="#000000" stroke-width="2" points="769.5,-616.5 769.5,-650.5 965.5,-650.5 965.5,-616.5 769.5,-616.5"/>
<text text-anchor="start" x="773.5" y="-627.3" font-family="Arial" font-size="24.00">0x503000000040</text>
<polygon fill="#22ff00" stroke="transparent" stroke-width="2" points="969.5,-615.5 969.5,-651.5 1167.5,-651.5 1167.5,-615.5 969.5,-615.5"/>
<polygon fill="none" stroke="#000000" stroke-width="2" points="970.5,-616.5 970.5,-650.5 1166.5,-650.5 1166.5,-616.5 970.5,-616.5"/>
<text text-anchor="start" x="974.5" y="-627.3" font-family="Arial" font-size="24.00">0x503000000070</text>
</g>
<!-- node1 -->
<g id="node2" class="node">
<title>node1</title>
<polygon fill="#0bdfee" stroke="transparent" points="446.5,-410 446.5,-569 850.5,-569 850.5,-410 446.5,-410"/>
<polygon fill="#ffffff" stroke="transparent" points="449.5,-529.5 449.5,-565.5 847.5,-565.5 847.5,-529.5 449.5,-529.5"/>
<polygon fill="none" stroke="#383838" stroke-width="2" points="450.5,-530.5 450.5,-564.5 846.5,-564.5 846.5,-530.5 450.5,-530.5"/>
<text text-anchor="start" x="614.5" y="-541.3" font-family="Arial" font-size="24.00">node1</text>
<polygon fill="#eeff00" stroke="transparent" stroke-width="2" points="449.5,-490.5 449.5,-526.5 847.5,-526.5 847.5,-490.5 449.5,-490.5"/>
<polygon fill="none" stroke="#000000" stroke-width="2" points="450.5,-491.5 450.5,-525.5 846.5,-525.5 846.5,-491.5 450.5,-491.5"/>
<text text-anchor="start" x="554.5" y="-502.3" font-family="Arial" font-size="24.00">0x503000000040</text>
<polygon fill="#c5a1e6" stroke="transparent" stroke-width="2" points="449.5,-451.5 449.5,-487.5 847.5,-487.5 847.5,-451.5 449.5,-451.5"/>
<polygon fill="none" stroke="#000000" stroke-width="2" points="450.5,-452.5 450.5,-486.5 846.5,-486.5 846.5,-452.5 450.5,-452.5"/>
<text text-anchor="start" x="641.5" y="-463.3" font-family="Arial" font-size="24.00">7</text>
<polygon fill="#4400ff" stroke="transparent" stroke-width="2" points="449.5,-412.5 449.5,-448.5 647.5,-448.5 647.5,-412.5 449.5,-412.5"/>
<polygon fill="none" stroke="#000000" stroke-width="2" points="450.5,-413.5 450.5,-447.5 646.5,-447.5 646.5,-413.5 450.5,-413.5"/>
<text text-anchor="start" x="454.5" y="-424.3" font-family="Arial" font-size="24.00">0x503000000100</text>
<polygon fill="#88ff00" stroke="transparent" stroke-width="2" points="650.5,-412.5 650.5,-448.5 847.5,-448.5 847.5,-412.5 650.5,-412.5"/>
<polygon fill="none" stroke="#000000" stroke-width="2" points="651.5,-413.5 651.5,-447.5 846.5,-447.5 846.5,-413.5 651.5,-413.5"/>
<text text-anchor="start" x="655.5" y="-424.3" font-family="Arial" font-size="24.00">0x5030000001c0</text>
</g>
<!-- node0&#45;&gt;node1 -->
<g id="edge1" class="edge">
<title>node0:l&#45;&gt;node1:n</title>
<path fill="none" stroke="#4d00a6" stroke-width="2" d="M767.5,-633.5C767.5,-633.5 685.12,-591.62 657.44,-577.55"/>
<polygon fill="#4d00a6" stroke="#4d00a6" stroke-width="2" points="659,-574.41 648.5,-573 655.83,-580.65 659,-574.41"/>
</g>
<!-- node5 -->
<g id="node6" class="node">
<title>node5</title>
<polygon fill="#0bdfee" stroke="transparent" points="1086,-410 1086,-569 1491,-569 1491,-410 1086,-410"/>
<polygon fill="#ffffff" stroke="transparent" points="1089.5,-529.5 1089.5,-565.5 1488.5,-565.5 1488.5,-529.5 1089.5,-529.5"/>
<polygon fill="none" stroke="#383838" stroke-width="2" points="1090.5,-530.5 1090.5,-564.5 1487.5,-564.5 1487.5,-530.5 1090.5,-530.5"/>
<text text-anchor="start" x="1255" y="-541.3" font-family="Arial" font-size="24.00">node5</text>
<polygon fill="#22ff00" stroke="transparent" stroke-width="2" points="1089.5,-490.5 1089.5,-526.5 1488.5,-526.5 1488.5,-490.5 1089.5,-490.5"/>
<polygon fill="none" stroke="#000000" stroke-width="2" points="1090.5,-491.5 1090.5,-525.5 1487.5,-525.5 1487.5,-491.5 1090.5,-491.5"/>
<text text-anchor="start" x="1195" y="-502.3" font-family="Arial" font-size="24.00">0x503000000070</text>
<polygon fill="#c5a1e6" stroke="transparent" stroke-width="2" points="1089.5,-451.5 1089.5,-487.5 1488.5,-487.5 1488.5,-451.5 1089.5,-451.5"/>
<polygon fill="none" stroke="#000000" stroke-width="2" points="1090.5,-452.5 1090.5,-486.5 1487.5,-486.5 1487.5,-452.5 1090.5,-452.5"/>
<text text-anchor="start" x="1275" y="-463.3" font-family="Arial" font-size="24.00">20</text>
<polygon fill="#ff0022" stroke="transparent" stroke-width="2" points="1089.5,-412.5 1089.5,-448.5 1287.5,-448.5 1287.5,-412.5 1089.5,-412.5"/>
<polygon fill="none" stroke="#000000" stroke-width="2" points="1090.5,-413.5 1090.5,-447.5 1286.5,-447.5 1286.5,-413.5 1090.5,-413.5"/>
<text text-anchor="start" x="1094.5" y="-424.3" font-family="Arial" font-size="24.00">0x503000000160</text>
<polygon fill="#ff00ee" stroke="transparent" stroke-width="2" points="1290.5,-412.5 1290.5,-448.5 1488.5,-448.5 1488.5,-412.5 1290.5,-412.5"/>
<polygon fill="none" stroke="#000000" stroke-width="2" points="1291.5,-413.5 1291.5,-447.5 1487.5,-447.5 1487.5,-413.5 1291.5,-413.5"/>
<text text-anchor="start" x="1295.5" y="-424.3" font-family="Arial" font-size="24.00">0x503000000130</text>
</g>
<!-- node0&#45;&gt;node5 -->
<g id="edge5" class="edge">
<title>node0:r&#45;&gt;node5:n</title>
<path fill="none" stroke="#4d00a6" stroke-width="2" d="M1168.5,-633.5C1168.5,-633.5 1251.57,-591.62 1279.48,-577.55"/>
<polygon fill="#4d00a6" stroke="#4d00a6" stroke-width="2" points="1281.15,-580.63 1288.5,-573 1277.99,-574.38 1281.15,-580.63"/>
</g>
<!-- node2 -->
<g id="node3" class="node">
<title>node2</title>
<polygon fill="#0bdfee" stroke="transparent" points="108,-207 108,-366 513,-366 513,-207 108,-207"/>
<polygon fill="#ffffff" stroke="transparent" points="111.5,-326.5 111.5,-362.5 510.5,-362.5 510.5,-326.5 111.5,-326.5"/>
<polygon fill="none" stroke="#383838" stroke-width="2" points="112.5,-327.5 112.5,-361.5 509.5,-361.5 509.5,-327.5 112.5,-327.5"/>
<text text-anchor="start" x="277" y="-338.3" font-family="Arial" font-size="24.00">node2</text>
<polygon fill="#4400ff" stroke="transparent" stroke-width="2" points="111.5,-287.5 111.5,-323.5 510.5,-323.5 510.5,-287.5 111.5,-287.5"/>
<polygon fill="none" stroke="#000000" stroke-width="2" points="112.5,-288.5 112.5,-322.5 509.5,-322.5 509.5,-288.5 112.5,-288.5"/>
<text text-anchor="start" x="217" y="-299.3" font-family="Arial" font-size="24.00">0x503000000100</text>
<polygon fill="#c5a1e6" stroke="transparent" stroke-width="2" points="111.5,-248.5 111.5,-284.5 510.5,-284.5 510.5,-248.5 111.5,-248.5"/>
<polygon fill="none" stroke="#000000" stroke-width="2" points="112.5,-249.5 112.5,-283.5 509.5,-283.5 509.5,-249.5 112.5,-249.5"/>
<text text-anchor="start" x="304" y="-260.3" font-family="Arial" font-size="24.00">3</text>
<polygon fill="#ffaa00" stroke="transparent" stroke-width="2" points="111.5,-209.5 111.5,-245.5 309.5,-245.5 309.5,-209.5 111.5,-209.5"/>
<polygon fill="none" stroke="#000000" stroke-width="2" points="112.5,-210.5 112.5,-244.5 308.5,-244.5 308.5,-210.5 112.5,-210.5"/>
<text text-anchor="start" x="116.5" y="-221.3" font-family="Arial" font-size="24.00">0x503000000190</text>
<polygon fill="#cccccc" stroke="transparent" stroke-width="2" points="312.5,-209.5 312.5,-245.5 510.5,-245.5 510.5,-209.5 312.5,-209.5"/>
<polygon fill="none" stroke="#000000" stroke-width="2" points="313.5,-210.5 313.5,-244.5 509.5,-244.5 509.5,-210.5 313.5,-210.5"/>
<text text-anchor="start" x="317.5" y="-221.3" font-family="Arial" font-size="24.00">0x000000000000</text>
</g>
<!-- node1&#45;&gt;node2 -->
<g id="edge2" class="edge">
<title>node1:l&#45;&gt;node2:n</title>
<path fill="none" stroke="#4d00a6" stroke-width="2" d="M448.5,-430.5C448.5,-430.5 351.16,-387.83 319.99,-374.16"/>
<polygon fill="#4d00a6" stroke="#4d00a6" stroke-width="2" points="321.06,-370.81 310.5,-370 318.25,-377.22 321.06,-370.81"/>
</g>
<!-- node4 -->
<g id="node5" class="node">
<title>node4</title>
<polygon fill="#0bdfee" stroke="transparent" points="547,-207 547,-366 952,-366 952,-207 547,-207"/>
<polygon fill="#ffffff" stroke="transparent" points="550.5,-326.5 550.5,-362.5 949.5,-362.5 949.5,-326.5 550.5,-326.5"/>
<polygon fill="none" stroke="#383838" stroke-width="2" points="551.5,-327.5 551.5,-361.5 948.5,-361.5 948.5,-327.5 551.5,-327.5"/>
<text text-anchor="start" x="716" y="-338.3" font-family="Arial" font-size="24.00">node4</text>
<polygon fill="#88ff00" stroke="transparent" stroke-width="2" points="550.5,-287.5 550.5,-323.5 949.5,-323.5 949.5,-287.5 550.5,-287.5"/>
<polygon fill="none" stroke="#000000" stroke-width="2" points="551.5,-288.5 551.5,-322.5 948.5,-322.5 948.5,-288.5 551.5,-288.5"/>
<text text-anchor="start" x="656.5" y="-299.3" font-family="Arial" font-size="24.00">0x5030000001c0</text>
<polygon fill="#c5a1e6" stroke="transparent" stroke-width="2" points="550.5,-248.5 550.5,-284.5 949.5,-284.5 949.5,-248.5 550.5,-248.5"/>
<polygon fill="none" stroke="#000000" stroke-width="2" points="551.5,-249.5 551.5,-283.5 948.5,-283.5 948.5,-249.5 551.5,-249.5"/>
<text text-anchor="start" x="743" y="-260.3" font-family="Arial" font-size="24.00">9</text>
<polygon fill="#cccccc" stroke="transparent" stroke-width="2" points="550.5,-209.5 550.5,-245.5 748.5,-245.5 748.5,-209.5 550.5,-209.5"/>
<polygon fill="none" stroke="#000000" stroke-width="2" points="551.5,-210.5 551.5,-244.5 747.5,-244.5 747.5,-210.5 551.5,-210.5"/>
<text text-anchor="start" x="555.5" y="-221.3" font-family="Arial" font-size="24.00">0x000000000000</text>
<polygon fill="#cccccc" stroke="transparent" stroke-width="2" points="751.5,-209.5 751.5,-245.5 949.5,-245.5 949.5,-209.5 751.5,-209.5"/>
<polygon fill="none" stroke="#000000" stroke-width="2" points="752.5,-210.5 752.5,-244.5 948.5,-244.5 948.5,-210.5 752.5,-210.5"/>
<text text-anchor="start" x="756.5" y="-221.3" font-family="Arial" font-size="24.00">0x000000000000</text>
</g>
<!-- node1&#45;&gt;node4 -->
<g id="edge4" class="edge">
<title>node1:r&#45;&gt;node4:n</title>
<path fill="none" stroke="#4d00a6" stroke-width="2" d="M749.5,-411.5C749.5,-411.5 749.5,-392.33 749.5,-380.05"/>
<polygon fill="#4d00a6" stroke="#4d00a6" stroke-width="2" points="753,-380 749.5,-370 746,-380 753,-380"/>
</g>
<!-- node3 -->
<g id="node4" class="node">
<title>node3</title>
<polygon fill="#0bdfee" stroke="transparent" points="8,-4 8,-163 413,-163 413,-4 8,-4"/>
<polygon fill="#ffffff" stroke="transparent" points="11.5,-123.5 11.5,-159.5 410.5,-159.5 410.5,-123.5 11.5,-123.5"/>
<polygon fill="none" stroke="#383838" stroke-width="2" points="12.5,-124.5 12.5,-158.5 409.5,-158.5 409.5,-124.5 12.5,-124.5"/>
<text text-anchor="start" x="177" y="-135.3" font-family="Arial" font-size="24.00">node3</text>
<polygon fill="#ffaa00" stroke="transparent" stroke-width="2" points="11.5,-84.5 11.5,-120.5 410.5,-120.5 410.5,-84.5 11.5,-84.5"/>
<polygon fill="none" stroke="#000000" stroke-width="2" points="12.5,-85.5 12.5,-119.5 409.5,-119.5 409.5,-85.5 12.5,-85.5"/>
<text text-anchor="start" x="117" y="-96.3" font-family="Arial" font-size="24.00">0x503000000190</text>
<polygon fill="#c5a1e6" stroke="transparent" stroke-width="2" points="11.5,-45.5 11.5,-81.5 410.5,-81.5 410.5,-45.5 11.5,-45.5"/>
<polygon fill="none" stroke="#000000" stroke-width="2" points="12.5,-46.5 12.5,-80.5 409.5,-80.5 409.5,-46.5 12.5,-46.5"/>
<text text-anchor="start" x="204" y="-57.3" font-family="Arial" font-size="24.00">1</text>
<polygon fill="#cccccc" stroke="transparent" stroke-width="2" points="11.5,-6.5 11.5,-42.5 209.5,-42.5 209.5,-6.5 11.5,-6.5"/>
<polygon fill="none" stroke="#000000" stroke-width="2" points="12.5,-7.5 12.5,-41.5 208.5,-41.5 208.5,-7.5 12.5,-7.5"/>
<text text-anchor="start" x="16.5" y="-18.3" font-family="Arial" font-size="24.00">0x000000000000</text>
<polygon fill="#cccccc" stroke="transparent" stroke-width="2" points="212.5,-6.5 212.5,-42.5 410.5,-42.5 410.5,-6.5 212.5,-6.5"/>
<polygon fill="none" stroke="#000000" stroke-width="2" points="213.5,-7.5 213.5,-41.5 409.5,-41.5 409.5,-7.5 213.5,-7.5"/>
<text text-anchor="start" x="217.5" y="-18.3" font-family="Arial" font-size="24.00">0x000000000000</text>
</g>
<!-- node2&#45;&gt;node3 -->
<g id="edge3" class="edge">
<title>node2:l&#45;&gt;node3:n</title>
<path fill="none" stroke="#4d00a6" stroke-width="2" d="M210.5,-208.5C210.5,-208.5 210.5,-189.33 210.5,-177.05"/>
<polygon fill="#4d00a6" stroke="#4d00a6" stroke-width="2" points="214,-177 210.5,-167 207,-177 214,-177"/>
</g>
<!-- node6 -->
<g id="node7" class="node">
<title>node6</title>
<polygon fill="#0bdfee" stroke="transparent" points="986,-207 986,-366 1391,-366 1391,-207 986,-207"/>
<polygon fill="#ffffff" stroke="transparent" points="989.5,-326.5 989.5,-362.5 1388.5,-362.5 1388.5,-326.5 989.5,-326.5"/>
<polygon fill="none" stroke="#383838" stroke-width="2" points="990.5,-327.5 990.5,-361.5 1387.5,-361.5 1387.5,-327.5 990.5,-327.5"/>
<text text-anchor="start" x="1155" y="-338.3" font-family="Arial" font-size="24.00">node6</text>
<polygon fill="#ff0022" stroke="transparent" stroke-width="2" points="989.5,-287.5 989.5,-323.5 1388.5,-323.5 1388.5,-287.5 989.5,-287.5"/>
<polygon fill="none" stroke="#000000" stroke-width="2" points="990.5,-288.5 990.5,-322.5 1387.5,-322.5 1387.5,-288.5 990.5,-288.5"/>
<text text-anchor="start" x="1095" y="-299.3" font-family="Arial" font-size="24.00">0x503000000160</text>
<polygon fill="#c5a1e6" stroke="transparent" stroke-width="2" points="989.5,-248.5 989.5,-284.5 1388.5,-284.5 1388.5,-248.5 989.5,-248.5"/>
<polygon fill="none" stroke="#000000" stroke-width="2" points="990.5,-249.5 990.5,-283.5 1387.5,-283.5 1387.5,-249.5 990.5,-249.5"/>
<text text-anchor="start" x="1175" y="-260.3" font-family="Arial" font-size="24.00">15</text>
<polygon fill="#cccccc" stroke="transparent" stroke-width="2" points="989.5,-209.5 989.5,-245.5 1187.5,-245.5 1187.5,-209.5 989.5,-209.5"/>
<polygon fill="none" stroke="#000000" stroke-width="2" points="990.5,-210.5 990.5,-244.5 1186.5,-244.5 1186.5,-210.5 990.5,-210.5"/>
<text text-anchor="start" x="994.5" y="-221.3" font-family="Arial" font-size="24.00">0x000000000000</text>
<polygon fill="#cccccc" stroke="transparent" stroke-width="2" points="1190.5,-209.5 1190.5,-245.5 1388.5,-245.5 1388.5,-209.5 1190.5,-209.5"/>
<polygon fill="none" stroke="#000000" stroke-width="2" points="1191.5,-210.5 1191.5,-244.5 1387.5,-244.5 1387.5,-210.5 1191.5,-210.5"/>
<text text-anchor="start" x="1195.5" y="-221.3" font-family="Arial" font-size="24.00">0x000000000000</text>
</g>
<!-- node5&#45;&gt;node6 -->
<g id="edge6" class="edge">
<title>node5:l&#45;&gt;node6:n</title>
<path fill="none" stroke="#4d00a6" stroke-width="2" d="M1188.5,-411.5C1188.5,-411.5 1188.5,-392.33 1188.5,-380.05"/>
<polygon fill="#4d00a6" stroke="#4d00a6" stroke-width="2" points="1192,-380 1188.5,-370 1185,-380 1192,-380"/>
</g>
<!-- node7 -->
<g id="node8" class="node">
<title>node7</title>
<polygon fill="#0bdfee" stroke="transparent" points="1425,-207 1425,-366 1830,-366 1830,-207 1425,-207"/>
<polygon fill="#ffffff" stroke="transparent" points="1428.5,-326.5 1428.5,-362.5 1827.5,-362.5 1827.5,-326.5 1428.5,-326.5"/>
<polygon fill="none" stroke="#383838" stroke-width="2" points="1429.5,-327.5 1429.5,-361.5 1826.5,-361.5 1826.5,-327.5 1429.5,-327.5"/>
<text text-anchor="start" x="1594" y="-338.3" font-family="Arial" font-size="24.00">node7</text>
<polygon fill="#ff00ee" stroke="transparent" stroke-width="2" points="1428.5,-287.5 1428.5,-323.5 1827.5,-323.5 1827.5,-287.5 1428.5,-287.5"/>
<polygon fill="none" stroke="#000000" stroke-width="2" points="1429.5,-288.5 1429.5,-322.5 1826.5,-322.5 1826.5,-288.5 1429.5,-288.5"/>
<text text-anchor="start" x="1534" y="-299.3" font-family="Arial" font-size="24.00">0x503000000130</text>
<polygon fill="#c5a1e6" stroke="transparent" stroke-width="2" points="1428.5,-248.5 1428.5,-284.5 1827.5,-284.5 1827.5,-248.5 1428.5,-248.5"/>
<polygon fill="none" stroke="#000000" stroke-width="2" points="1429.5,-249.5 1429.5,-283.5 1826.5,-283.5 1826.5,-249.5 1429.5,-249.5"/>
<text text-anchor="start" x="1614" y="-260.3" font-family="Arial" font-size="24.00">35</text>
<polygon fill="#cccccc" stroke="transparent" stroke-width="2" points="1428.5,-209.5 1428.5,-245.5 1626.5,-245.5 1626.5,-209.5 1428.5,-209.5"/>
<polygon fill="none" stroke="#000000" stroke-width="2" points="1429.5,-210.5 1429.5,-244.5 1625.5,-244.5 1625.5,-210.5 1429.5,-210.5"/>
<text text-anchor="start" x="1433.5" y="-221.3" font-family="Arial" font-size="24.00">0x000000000000</text>
<polygon fill="#cccccc" stroke="transparent" stroke-width="2" points="1629.5,-209.5 1629.5,-245.5 1827.5,-245.5 1827.5,-209.5 1629.5,-209.5"/>
<polygon fill="none" stroke="#000000" stroke-width="2" points="1630.5,-210.5 1630.5,-244.5 1826.5,-244.5 1826.5,-210.5 1630.5,-210.5"/>
<text text-anchor="start" x="1634.5" y="-221.3" font-family="Arial" font-size="24.00">0x000000000000</text>
</g>
<!-- node5&#45;&gt;node7 -->
<g id="edge7" class="edge">
<title>node5:r&#45;&gt;node7:n</title>
<path fill="none" stroke="#4d00a6" stroke-width="2" d="M1489.5,-430.5C1489.5,-430.5 1586.84,-387.83 1618.01,-374.16"/>
<polygon fill="#4d00a6" stroke="#4d00a6" stroke-width="2" points="1619.75,-377.22 1627.5,-370 1616.94,-370.81 1619.75,-377.22"/>
</g>
</g>
</svg>
